<?xml version="1.0" encoding="UTF-8"?>
<svg id="Layer_2" xmlns="http://www.w3.org/2000/svg" viewBox="0 0 841.89 498.75">
  <defs>
    <style>
      .cls-1 {
        fill: none;
      }

      .cls-2 {
        fill: #bcbec0;
      }

      .cls-3 {
        fill: #00acff;
      }
    </style>
  </defs>
  <g id="Layer_1-2" data-name="Layer_1">
    <g>
      <g>
        <path class="cls-2" d="M466.45,129.05c-.64-.64-.96-1.42-.96-2.35s.32-1.71.96-2.35c.64-.64,1.42-.96,2.35-.96s1.64.32,2.27.96c.62.64.93,1.42.93,2.35s-.31,1.71-.93,2.35c-.62.64-1.38.96-2.27.96s-1.71-.32-2.35-.96ZM471.14,134.76v29.22h-4.85v-29.22h4.85Z"/>
        <path class="cls-2" d="M505.74,137.45c2.2,2.15,3.31,5.25,3.31,9.3v17.22h-4.8v-16.53c0-2.91-.73-5.15-2.19-6.69s-3.45-2.32-5.97-2.32-4.59.8-6.1,2.4c-1.51,1.6-2.27,3.93-2.27,6.98v16.16h-4.85v-29.22h4.85v4.16c.96-1.49,2.27-2.65,3.92-3.47s3.47-1.23,5.47-1.23c3.55,0,6.43,1.08,8.64,3.23Z"/>
        <path class="cls-2" d="M524.78,163.31c-1.78-.76-3.18-1.83-4.21-3.2-1.03-1.37-1.6-2.94-1.71-4.72h5.01c.14,1.46.83,2.65,2.05,3.57,1.23.92,2.83,1.39,4.83,1.39,1.85,0,3.31-.41,4.37-1.23,1.07-.82,1.6-1.85,1.6-3.09s-.57-2.23-1.71-2.85c-1.14-.62-2.9-1.23-5.28-1.84-2.17-.57-3.94-1.15-5.3-1.73-1.37-.59-2.54-1.46-3.52-2.61-.98-1.15-1.47-2.67-1.47-4.56,0-1.49.44-2.86,1.33-4.11.89-1.24,2.15-2.23,3.78-2.96,1.63-.73,3.5-1.09,5.6-1.09,3.23,0,5.85.82,7.84,2.45,1.99,1.64,3.06,3.87,3.2,6.72h-4.85c-.11-1.53-.72-2.75-1.84-3.68-1.12-.92-2.62-1.39-4.51-1.39-1.74,0-3.13.37-4.16,1.12-1.03.75-1.55,1.72-1.55,2.93,0,.96.31,1.75.93,2.37.62.62,1.4,1.12,2.35,1.49.94.37,2.25.79,3.92,1.25,2.1.57,3.8,1.13,5.12,1.68,1.31.55,2.44,1.38,3.39,2.48.94,1.1,1.43,2.54,1.47,4.32,0,1.6-.45,3.04-1.33,4.32-.89,1.28-2.14,2.28-3.76,3.01-1.62.73-3.47,1.09-5.57,1.09-2.24,0-4.25-.38-6.02-1.15Z"/>
        <path class="cls-2" d="M557.67,138.76v17.22c0,1.42.3,2.43.91,3.01.6.59,1.65.88,3.15.88h3.57v4.11h-4.37c-2.7,0-4.73-.62-6.08-1.87-1.35-1.24-2.03-3.29-2.03-6.13v-17.22h-3.79v-4h3.79v-7.36h4.85v7.36h7.62v4h-7.62Z"/>
        <path class="cls-2" d="M574.79,129.05c-.64-.64-.96-1.42-.96-2.35s.32-1.71.96-2.35c.64-.64,1.42-.96,2.35-.96s1.64.32,2.27.96c.62.64.93,1.42.93,2.35s-.31,1.71-.93,2.35c-.62.64-1.38.96-2.27.96s-1.71-.32-2.35-.96ZM579.48,134.76v29.22h-4.85v-29.22h4.85Z"/>
        <path class="cls-2" d="M597.13,138.76v17.22c0,1.42.3,2.43.91,3.01.6.59,1.65.88,3.15.88h3.57v4.11h-4.37c-2.7,0-4.73-.62-6.08-1.87-1.35-1.24-2.03-3.29-2.03-6.13v-17.22h-3.79v-4h3.79v-7.36h4.85v7.36h7.62v4h-7.62Z"/>
        <path class="cls-2" d="M639.99,134.76v29.22h-4.85v-4.32c-.92,1.49-2.21,2.66-3.87,3.49s-3.48,1.25-5.47,1.25c-2.28,0-4.32-.47-6.13-1.41-1.81-.94-3.24-2.35-4.29-4.24-1.05-1.88-1.57-4.18-1.57-6.88v-17.11h4.8v16.47c0,2.88.73,5.09,2.19,6.64s3.45,2.32,5.97,2.32,4.64-.8,6.13-2.4,2.24-3.93,2.24-6.98v-16.05h4.85Z"/>
        <path class="cls-2" d="M657.59,138.76v17.22c0,1.42.3,2.43.91,3.01.6.59,1.65.88,3.15.88h3.57v4.11h-4.37c-2.7,0-4.73-.62-6.08-1.87-1.35-1.24-2.03-3.29-2.03-6.13v-17.22h-3.79v-4h3.79v-7.36h4.85v7.36h7.62v4h-7.62Z"/>
        <path class="cls-2" d="M679.85,162.59c-2.22-1.24-3.96-3.01-5.23-5.31-1.26-2.29-1.89-4.95-1.89-7.97s.65-5.63,1.95-7.92c1.3-2.29,3.07-4.05,5.31-5.28,2.24-1.23,4.75-1.84,7.52-1.84s5.28.61,7.52,1.84c2.24,1.23,4.01,2.98,5.3,5.25,1.3,2.28,1.95,4.92,1.95,7.94s-.67,5.68-2,7.97c-1.33,2.29-3.14,4.06-5.41,5.31-2.27,1.24-4.8,1.87-7.57,1.87s-5.22-.62-7.44-1.87ZM692.19,158.97c1.53-.82,2.76-2.04,3.71-3.68.94-1.63,1.41-3.63,1.41-5.97s-.46-4.34-1.39-5.97c-.92-1.63-2.13-2.85-3.63-3.65-1.49-.8-3.11-1.2-4.85-1.2s-3.4.4-4.88,1.2c-1.48.8-2.66,2.02-3.55,3.65-.89,1.64-1.33,3.63-1.33,5.97s.43,4.39,1.31,6.03c.87,1.63,2.03,2.85,3.49,3.65,1.46.8,3.06,1.2,4.8,1.2s3.38-.41,4.9-1.23Z"/>
      </g>
      <g>
        <path class="cls-3" d="M184.05,313.99c-35.26,0-60.63-23.65-60.63-61.71s24.94-61.71,60.63-61.71,59.77,23.22,59.77,59.77c0,2.4-.1,4.9-.31,7.44-.15,1.88-1.74,3.31-3.62,3.31h-79.92c1.29,15.7,10.96,23.01,22.79,23.01,9.42,0,15.07-4.3,18.28-9.95.59-1.04,1.71-1.66,2.9-1.66h32.58c2.33,0,3.94,2.3,3.18,4.5-7.28,21.21-27.71,37-55.65,37ZM160.18,240.68h46.01c0-13.12-10.32-20.64-22.58-20.64s-21.29,7.31-23.44,20.64Z"/>
        <path class="cls-3" d="M268.98,222.83h-9.52c-2.82,0-5.1-2.28-5.1-5.1v-20.33c0-2.82,2.28-5.1,5.1-5.1h9.52v-34.03c0-2.82,2.28-5.1,5.1-5.1h26.56c2.82,0,5.1,2.28,5.1,5.1v34.03h18.89c2.87,0,5.19,2.33,5.19,5.19v1.26c0,13.3-10.78,24.08-24.08,24.08h0v48.16c0,7.1,3.01,10.11,11.18,10.11h8.01c2.82,0,5.1,2.28,5.1,5.1v20.97c0,2.82-2.28,5.1-5.1,5.1h-13.6c-24.94,0-42.36-10.54-42.36-41.71v-47.73Z"/>
        <path class="cls-3" d="M350.32,153.17h28.13c2.38,0,4.32,1.93,4.32,4.32v50.94c7.31-10.32,20.43-17.42,36.98-17.42,27.31,0,45.58,18.92,45.58,51.17v65.47c0,2.55-2.07,4.62-4.62,4.62h-9.46c-12.41,0-22.47-10.06-22.47-22.47v-42.68c0-16.34-9.03-25.37-23.01-25.37s-23.01,9.03-23.01,25.37v60.83c0,2.38-1.93,4.32-4.32,4.32h-28.13c-2.38,0-4.32-1.93-4.32-4.32v-150.47c0-2.38,1.93-4.32,4.32-4.32Z"/>
        <path class="cls-3" d="M541.08,313.99c-35.26,0-61.92-23.65-61.92-61.71s27.31-61.71,62.35-61.71,62.35,23.65,62.35,61.71-27.52,61.71-62.78,61.71ZM541.08,282.17c13.12,0,25.37-9.68,25.37-29.89s-12.04-29.89-24.94-29.89-24.94,9.46-24.94,29.89,11.18,29.89,24.51,29.89Z"/>
        <path class="cls-3" d="M669.69,313.99c-29.68,0-50.31-15.31-54.56-36.03-.53-2.6,1.41-5.04,4.06-5.04h16.34c7.12,0,14.05,2.82,18.8,8.12,3.3,3.68,8.61,5.86,14.92,5.86,9.46,0,14.41-4.3,14.41-9.68,0-19.35-65.36-5.37-65.36-49.45,0-20.43,17.42-37.2,48.81-37.2,28.75,0,45.63,14.83,49.79,35.88.51,2.57-1.46,4.97-4.08,4.97h-15.74c-6.43,0-12.58-2.81-16.66-7.77-2.99-3.63-7.87-5.77-14.39-5.77-8.6,0-13.33,3.44-13.33,9.25,0,19.14,64.93,5.59,65.58,50.31,0,20.86-18.49,36.55-48.59,36.55Z"/>
      </g>
    </g>
    <g>
      <path class="cls-2" d="M128.08,351.1c.83-.46,1.82-.69,2.95-.69,1.33,0,2.54.35,3.62,1.04,1.08.69,1.94,1.69,2.56,2.98s.94,2.8.94,4.53-.31,3.24-.94,4.55c-.63,1.3-1.48,2.3-2.56,3-1.08.69-2.29,1.04-3.62,1.04-1.13,0-2.11-.23-2.94-.69s-1.48-1.07-1.95-1.85v10.31h-5.84v-24.72h5.84v2.33c.46-.78,1.1-1.39,1.94-1.85ZM131.34,356.42c-.59-.61-1.31-.91-2.16-.91s-1.58.31-2.16.92c-.59.62-.88,1.46-.88,2.53s.29,1.95.88,2.56c.59.62,1.31.92,2.16.92s1.58-.31,2.16-.94c.59-.63.88-1.48.88-2.55s-.29-1.94-.88-2.55Z"/>
      <path class="cls-2" d="M143.87,366.51c-1.32-.7-2.36-1.69-3.12-2.98-.76-1.29-1.13-2.81-1.13-4.56s.38-3.24,1.15-4.53c.76-1.29,1.81-2.29,3.13-2.98,1.32-.7,2.82-1.04,4.49-1.04s3.17.35,4.49,1.04c1.32.69,2.36,1.69,3.13,2.98s1.15,2.8,1.15,4.53-.38,3.24-1.15,4.55c-.77,1.3-1.81,2.3-3.14,3-1.33.69-2.83,1.04-4.5,1.04s-3.17-.35-4.49-1.04ZM150.4,361.57c.55-.61.82-1.48.82-2.61s-.27-2-.82-2.59c-.55-.6-1.22-.89-2.01-.89s-1.46.3-2,.89c-.54.6-.81,1.46-.81,2.59s.26,2.03.77,2.62c.52.6,1.18.89,2,.89s1.5-.3,2.04-.91Z"/>
      <path class="cls-2" d="M167.76,351.3c.93-.55,1.94-.83,3.01-.83v6.23h-1.64c-1.27,0-2.22.25-2.83.75-.62.5-.92,1.36-.92,2.59v7.31h-5.84v-16.73h5.84v2.95c.66-.95,1.45-1.71,2.39-2.27Z"/>
      <path class="cls-2" d="M195.67,350.62v16.73h-5.87v-2.39c-.5.76-1.18,1.37-2.06,1.83-.87.47-1.88.7-3.01.7-1.95,0-3.48-.64-4.61-1.92-1.12-1.28-1.68-3.03-1.68-5.23v-9.72h5.81v8.97c0,.95.25,1.7.76,2.25.51.55,1.18.82,2.01.82s1.53-.27,2.03-.82c.5-.55.75-1.3.75-2.25v-8.97h5.87Z"/>
      <path class="cls-2" d="M225.82,352.38c1.2,1.27,1.8,3.01,1.8,5.22v9.75h-5.84v-8.97c0-.89-.25-1.59-.75-2.09-.5-.5-1.17-.75-2.03-.75s-1.53.25-2.03.75c-.5.5-.75,1.19-.75,2.09v8.97h-5.84v-8.97c0-.89-.24-1.59-.73-2.09-.49-.5-1.16-.75-2.01-.75s-1.56.25-2.06.75c-.5.5-.75,1.19-.75,2.09v8.97h-5.84v-16.73h5.84v2.21c.52-.71,1.19-1.29,2.01-1.71.82-.43,1.77-.64,2.85-.64,1.23,0,2.33.27,3.29.81.96.54,1.72,1.29,2.28,2.27.6-.91,1.38-1.65,2.35-2.22.97-.57,2.05-.85,3.22-.85,2.11,0,3.76.64,4.96,1.91Z"/>
      <path class="cls-2" d="M230.8,354.43c.63-1.29,1.48-2.29,2.56-2.98,1.08-.7,2.29-1.04,3.62-1.04,1.15,0,2.15.23,2.98.69s1.48,1.07,1.94,1.85v-2.33h5.84v16.73h-5.84v-2.33c-.46.77-1.11,1.39-1.95,1.85-.85.46-1.83.69-2.97.69-1.33,0-2.54-.35-3.62-1.04-1.08-.7-1.94-1.7-2.56-3-.63-1.3-.94-2.82-.94-4.55s.31-3.24.94-4.53ZM241.03,356.43c-.59-.62-1.31-.92-2.16-.92s-1.6.3-2.18.91c-.58.61-.86,1.46-.86,2.55s.29,1.92.86,2.55c.58.63,1.3.94,2.18.94s1.57-.31,2.16-.92c.59-.62.88-1.47.88-2.56s-.29-1.92-.88-2.53Z"/>
      <path class="cls-2" d="M259.87,366.79c-1.18-.51-2.12-1.2-2.8-2.09-.69-.88-1.07-1.88-1.15-3h5.66c.08.54.33.96.75,1.25s.93.45,1.55.45c.48,0,.85-.1,1.13-.3.28-.2.42-.46.42-.77,0-.42-.23-.73-.69-.92-.46-.2-1.21-.42-2.27-.66-1.19-.24-2.19-.51-2.98-.8s-1.49-.79-2.07-1.46c-.59-.68-.88-1.59-.88-2.74,0-.99.27-1.89.81-2.7.54-.8,1.33-1.45,2.37-1.92,1.04-.48,2.3-.71,3.77-.71,2.19,0,3.91.54,5.16,1.61,1.25,1.07,1.98,2.48,2.18,4.23h-5.28c-.1-.54-.33-.95-.7-1.24-.37-.29-.86-.43-1.48-.43-.48,0-.84.09-1.09.27-.25.18-.37.43-.37.75,0,.4.23.7.69.91.46.21,1.19.42,2.21.64,1.21.26,2.22.55,3.03.86.8.32,1.51.83,2.12,1.54.61.71.91,1.66.91,2.88,0,.97-.28,1.85-.85,2.62-.57.78-1.37,1.39-2.41,1.83-1.04.45-2.27.67-3.68.67-1.51,0-2.86-.25-4.04-.76Z"/>
      <path class="cls-2" d="M277.01,366.51c-1.32-.7-2.36-1.69-3.12-2.98-.76-1.29-1.13-2.81-1.13-4.56s.38-3.24,1.15-4.53c.76-1.29,1.81-2.29,3.13-2.98,1.32-.7,2.82-1.04,4.49-1.04s3.17.35,4.49,1.04c1.32.69,2.36,1.69,3.13,2.98s1.15,2.8,1.15,4.53-.38,3.24-1.15,4.55c-.77,1.3-1.81,2.3-3.14,3-1.33.69-2.83,1.04-4.5,1.04s-3.17-.35-4.49-1.04ZM283.54,361.57c.55-.61.82-1.48.82-2.61s-.27-2-.82-2.59c-.55-.6-1.22-.89-2.01-.89s-1.46.3-2,.89c-.54.6-.81,1.46-.81,2.59s.26,2.03.77,2.62c.52.6,1.18.89,2,.89s1.5-.3,2.04-.91Z"/>
      <path class="cls-2" d="M292.8,354.43c.72-1.29,1.71-2.29,3-2.98,1.28-.7,2.75-1.04,4.4-1.04,2.13,0,3.92.58,5.37,1.74,1.45,1.16,2.39,2.79,2.8,4.87h-6.2c-.36-1.09-1.05-1.64-2.09-1.64-.74,0-1.32.3-1.74.91-.43.61-.64,1.5-.64,2.67s.21,2.07.64,2.68c.43.62,1.01.92,1.74.92,1.05,0,1.75-.55,2.09-1.64h6.2c-.42,2.07-1.35,3.69-2.8,4.86-1.45,1.17-3.24,1.76-5.37,1.76-1.65,0-3.12-.35-4.4-1.04-1.28-.7-2.28-1.69-3-2.98-.72-1.29-1.07-2.81-1.07-4.56s.36-3.24,1.07-4.53Z"/>
      <path class="cls-2" d="M311.24,348.22c-.63-.57-.94-1.28-.94-2.13s.31-1.6.94-2.18c.63-.58,1.46-.86,2.49-.86s1.83.29,2.46.86c.63.58.94,1.3.94,2.18s-.31,1.56-.94,2.13c-.63.57-1.45.85-2.46.85s-1.86-.28-2.49-.85ZM316.62,350.62v16.73h-5.84v-16.73h5.84Z"/>
      <path class="cls-2" d="M335.85,360.16h-11.06c.06.91.31,1.59.76,2.04.45.45,1.02.67,1.71.67.97,0,1.67-.44,2.09-1.31h6.23c-.26,1.15-.76,2.18-1.51,3.09-.75.9-1.68,1.62-2.82,2.13-1.13.52-2.39.78-3.76.78-1.65,0-3.12-.35-4.4-1.04-1.28-.7-2.29-1.69-3.01-2.98s-1.09-2.81-1.09-4.56.36-3.27,1.07-4.55c.72-1.28,1.71-2.27,3-2.97,1.28-.7,2.76-1.04,4.43-1.04s3.11.34,4.38,1.01,2.27,1.64,2.98,2.91c.72,1.26,1.07,2.75,1.07,4.46,0,.46-.03.91-.09,1.37ZM329.98,357.33c0-.71-.24-1.28-.72-1.68-.48-.41-1.07-.61-1.79-.61s-1.3.19-1.76.58c-.46.39-.76.96-.89,1.71h5.16Z"/>
      <path class="cls-2" d="M338.31,354.43c.63-1.29,1.49-2.29,2.58-2.98,1.09-.7,2.31-1.04,3.64-1.04,1.07,0,2.03.22,2.88.67.84.45,1.51,1.06,1.98,1.83v-7.63h5.87v22.06h-5.87v-2.33c-.46.77-1.1,1.39-1.94,1.85s-1.82.69-2.95.69c-1.33,0-2.54-.35-3.62-1.04-1.08-.7-1.94-1.7-2.56-3-.63-1.3-.94-2.82-.94-4.55s.31-3.24.94-4.53ZM348.54,356.43c-.59-.62-1.31-.92-2.16-.92s-1.6.3-2.18.91c-.58.61-.86,1.46-.86,2.55s.29,1.92.86,2.55c.58.63,1.3.94,2.18.94s1.57-.31,2.16-.92c.59-.62.88-1.47.88-2.56s-.29-1.92-.88-2.53Z"/>
      <path class="cls-2" d="M358.58,354.43c.63-1.29,1.48-2.29,2.56-2.98,1.08-.7,2.29-1.04,3.62-1.04,1.15,0,2.15.23,2.98.69s1.48,1.07,1.94,1.85v-2.33h5.84v16.73h-5.84v-2.33c-.46.77-1.11,1.39-1.95,1.85s-1.83.69-2.97.69c-1.33,0-2.54-.35-3.62-1.04-1.08-.7-1.94-1.7-2.56-3-.63-1.3-.94-2.82-.94-4.55s.31-3.24.94-4.53ZM368.81,356.43c-.59-.62-1.31-.92-2.16-.92s-1.6.3-2.18.91-.86,1.46-.86,2.55.29,1.92.86,2.55c.58.63,1.3.94,2.18.94s1.58-.31,2.16-.92c.59-.62.88-1.47.88-2.56s-.29-1.92-.88-2.53Z"/>
      <path class="cls-2" d="M378.86,354.43c.63-1.29,1.49-2.29,2.58-2.98,1.09-.7,2.31-1.04,3.64-1.04,1.07,0,2.03.22,2.88.67.84.45,1.51,1.06,1.98,1.83v-7.63h5.87v22.06h-5.87v-2.33c-.46.77-1.1,1.39-1.94,1.85s-1.82.69-2.95.69c-1.33,0-2.54-.35-3.62-1.04-1.08-.7-1.94-1.7-2.56-3-.63-1.3-.94-2.82-.94-4.55s.31-3.24.94-4.53ZM389.08,356.43c-.59-.62-1.31-.92-2.16-.92s-1.6.3-2.18.91-.86,1.46-.86,2.55.29,1.92.86,2.55c.58.63,1.3.94,2.18.94s1.58-.31,2.16-.92c.59-.62.88-1.47.88-2.56s-.29-1.92-.88-2.53Z"/>
      <path class="cls-2" d="M415.03,360.16h-11.06c.06.91.31,1.59.76,2.04.45.45,1.02.67,1.71.67.97,0,1.67-.44,2.09-1.31h6.23c-.26,1.15-.76,2.18-1.51,3.09s-1.68,1.62-2.82,2.13c-1.13.52-2.39.78-3.76.78-1.65,0-3.12-.35-4.4-1.04-1.28-.7-2.29-1.69-3.01-2.98-.73-1.29-1.09-2.81-1.09-4.56s.36-3.27,1.07-4.55c.72-1.28,1.71-2.27,3-2.97,1.28-.7,2.76-1.04,4.43-1.04s3.11.34,4.38,1.01c1.27.68,2.27,1.64,2.98,2.91.72,1.26,1.07,2.75,1.07,4.46,0,.46-.03.91-.09,1.37ZM409.16,357.33c0-.71-.24-1.28-.72-1.68-.48-.41-1.07-.61-1.79-.61s-1.3.19-1.76.58c-.46.39-.76.96-.89,1.71h5.16Z"/>
      <path class="cls-2" d="M429.05,368.98c0,4.23-2.13,6.35-6.38,6.35h-2.12v-4.98h1.25c.5,0,.85-.1,1.07-.3.22-.2.33-.53.33-.99v-18.45h5.84v18.37ZM423.64,348.22c-.63-.57-.94-1.28-.94-2.13s.31-1.6.94-2.18c.63-.58,1.46-.86,2.49-.86s1.83.29,2.46.86c.63.58.94,1.3.94,2.18s-.31,1.56-.94,2.13c-.63.57-1.45.85-2.46.85s-1.86-.28-2.49-.85Z"/>
      <path class="cls-2" d="M449.47,350.62v16.73h-5.87v-2.39c-.5.76-1.18,1.37-2.06,1.83-.87.47-1.88.7-3.01.7-1.95,0-3.48-.64-4.61-1.92-1.12-1.28-1.68-3.03-1.68-5.23v-9.72h5.81v8.97c0,.95.25,1.7.76,2.25.51.55,1.18.82,2.01.82s1.53-.27,2.03-.82c.5-.55.75-1.3.75-2.25v-8.97h5.87Z"/>
      <path class="cls-2" d="M455.89,366.79c-1.18-.51-2.12-1.2-2.8-2.09-.69-.88-1.07-1.88-1.15-3h5.66c.08.54.33.96.75,1.25s.93.45,1.55.45c.48,0,.85-.1,1.13-.3s.42-.46.42-.77c0-.42-.23-.73-.69-.92-.46-.2-1.21-.42-2.27-.66-1.19-.24-2.19-.51-2.98-.8-.8-.3-1.49-.79-2.07-1.46-.59-.68-.88-1.59-.88-2.74,0-.99.27-1.89.81-2.7s1.33-1.45,2.37-1.92c1.04-.48,2.3-.71,3.77-.71,2.19,0,3.91.54,5.16,1.61,1.25,1.07,1.98,2.48,2.18,4.23h-5.28c-.1-.54-.33-.95-.7-1.24-.37-.29-.86-.43-1.48-.43-.48,0-.84.09-1.09.27-.25.18-.37.43-.37.75,0,.4.23.7.69.91.46.21,1.19.42,2.21.64,1.21.26,2.22.55,3.03.86.81.32,1.51.83,2.12,1.54s.91,1.66.91,2.88c0,.97-.28,1.85-.85,2.62-.57.78-1.37,1.39-2.42,1.83-1.04.45-2.27.67-3.68.67-1.51,0-2.86-.25-4.04-.76Z"/>
      <path class="cls-2" d="M479.61,362.36v4.98h-2.53c-4.27,0-6.41-2.12-6.41-6.35v-5.52h-2.06v-4.86h2.06v-4.05h5.87v4.05h3.04v4.86h-3.04v5.6c0,.46.1.79.31.98.21.2.56.3,1.06.3h1.7Z"/>
      <path class="cls-2" d="M482.28,354.43c.63-1.29,1.48-2.29,2.56-2.98,1.08-.7,2.29-1.04,3.62-1.04,1.15,0,2.15.23,2.98.69s1.48,1.07,1.94,1.85v-2.33h5.84v16.73h-5.84v-2.33c-.46.77-1.11,1.39-1.95,1.85-.85.46-1.83.69-2.97.69-1.33,0-2.54-.35-3.62-1.04-1.08-.7-1.94-1.7-2.56-3-.63-1.3-.94-2.82-.94-4.55s.31-3.24.94-4.53ZM492.5,356.43c-.59-.62-1.31-.92-2.16-.92s-1.6.3-2.18.91c-.58.61-.86,1.46-.86,2.55s.29,1.92.86,2.55c.58.63,1.3.94,2.18.94s1.57-.31,2.16-.92c.59-.62.88-1.47.88-2.56s-.29-1.92-.88-2.53Z"/>
      <path class="cls-2" d="M524.15,360.16h-11.06c.06.91.31,1.59.76,2.04.45.45,1.02.67,1.71.67.97,0,1.67-.44,2.09-1.31h6.23c-.26,1.15-.76,2.18-1.51,3.09s-1.68,1.62-2.82,2.13c-1.13.52-2.38.78-3.76.78-1.65,0-3.12-.35-4.4-1.04-1.28-.7-2.29-1.69-3.01-2.98-.73-1.29-1.09-2.81-1.09-4.56s.36-3.27,1.07-4.55c.72-1.28,1.71-2.27,3-2.97,1.28-.7,2.76-1.04,4.43-1.04s3.11.34,4.38,1.01c1.27.68,2.27,1.64,2.98,2.91.72,1.26,1.07,2.75,1.07,4.46,0,.46-.03.91-.09,1.37ZM518.28,357.33c0-.71-.24-1.28-.72-1.68-.48-.41-1.07-.61-1.79-.61s-1.3.19-1.76.58c-.46.39-.76.96-.89,1.71h5.16Z"/>
      <path class="cls-2" d="M540.55,351.3c.93-.55,1.94-.83,3.01-.83v6.23h-1.64c-1.27,0-2.22.25-2.83.75-.62.5-.92,1.36-.92,2.59v7.31h-5.84v-16.73h5.84v2.95c.66-.95,1.45-1.71,2.39-2.27Z"/>
      <path class="cls-2" d="M561.54,360.16h-11.06c.06.91.31,1.59.76,2.04.45.45,1.02.67,1.71.67.97,0,1.67-.44,2.09-1.31h6.23c-.26,1.15-.76,2.18-1.51,3.09-.74.9-1.68,1.62-2.82,2.13-1.13.52-2.38.78-3.76.78-1.65,0-3.12-.35-4.4-1.04-1.28-.7-2.29-1.69-3.01-2.98-.73-1.29-1.09-2.81-1.09-4.56s.36-3.27,1.07-4.55c.72-1.28,1.71-2.27,3-2.97,1.28-.7,2.76-1.04,4.43-1.04s3.11.34,4.38,1.01c1.27.68,2.27,1.64,2.98,2.91.72,1.26,1.07,2.75,1.07,4.46,0,.46-.03.91-.09,1.37ZM555.66,357.33c0-.71-.24-1.28-.72-1.68s-1.07-.61-1.79-.61-1.3.19-1.76.58c-.46.39-.76.96-.89,1.71h5.16Z"/>
      <path class="cls-2" d="M567.1,366.79c-1.18-.51-2.12-1.2-2.8-2.09-.69-.88-1.07-1.88-1.15-3h5.67c.08.54.33.96.75,1.25s.93.45,1.55.45c.48,0,.85-.1,1.13-.3s.42-.46.42-.77c0-.42-.23-.73-.69-.92s-1.21-.42-2.27-.66c-1.19-.24-2.19-.51-2.98-.8-.8-.3-1.49-.79-2.07-1.46-.59-.68-.88-1.59-.88-2.74,0-.99.27-1.89.81-2.7.54-.8,1.33-1.45,2.37-1.92,1.04-.48,2.3-.71,3.77-.71,2.19,0,3.91.54,5.16,1.61,1.25,1.07,1.98,2.48,2.18,4.23h-5.28c-.1-.54-.33-.95-.7-1.24-.37-.29-.86-.43-1.48-.43-.48,0-.84.09-1.09.27s-.37.43-.37.75c0,.4.23.7.69.91.46.21,1.19.42,2.21.64,1.21.26,2.22.55,3.03.86.8.32,1.51.83,2.12,1.54.61.71.91,1.66.91,2.88,0,.97-.28,1.85-.85,2.62-.57.78-1.37,1.39-2.41,1.83-1.04.45-2.27.67-3.68.67-1.51,0-2.86-.25-4.04-.76Z"/>
      <path class="cls-2" d="M588.73,351.1c.83-.46,1.82-.69,2.95-.69,1.33,0,2.54.35,3.62,1.04,1.08.69,1.94,1.69,2.56,2.98s.94,2.8.94,4.53-.31,3.24-.94,4.55c-.63,1.3-1.48,2.3-2.56,3-1.08.69-2.29,1.04-3.62,1.04-1.13,0-2.11-.23-2.94-.69-.82-.46-1.48-1.07-1.95-1.85v10.31h-5.84v-24.72h5.84v2.33c.46-.78,1.1-1.39,1.94-1.85ZM591.99,356.42c-.59-.61-1.31-.91-2.16-.91s-1.58.31-2.16.92c-.59.62-.88,1.46-.88,2.53s.29,1.95.88,2.56c.59.62,1.31.92,2.16.92s1.57-.31,2.16-.94c.59-.63.88-1.48.88-2.55s-.29-1.94-.88-2.55Z"/>
      <path class="cls-2" d="M604.51,366.51c-1.32-.7-2.36-1.69-3.11-2.98-.76-1.29-1.13-2.81-1.13-4.56s.38-3.24,1.15-4.53c.76-1.29,1.81-2.29,3.13-2.98,1.32-.7,2.82-1.04,4.49-1.04s3.17.35,4.49,1.04c1.32.69,2.37,1.69,3.13,2.98.76,1.29,1.15,2.8,1.15,4.53s-.38,3.24-1.15,4.55c-.77,1.3-1.81,2.3-3.15,3-1.33.69-2.83,1.04-4.5,1.04s-3.17-.35-4.49-1.04ZM611.04,361.57c.55-.61.82-1.48.82-2.61s-.27-2-.82-2.59c-.55-.6-1.22-.89-2.01-.89s-1.46.3-2,.89c-.54.6-.8,1.46-.8,2.59s.26,2.03.77,2.62c.52.6,1.18.89,2,.89s1.5-.3,2.04-.91Z"/>
      <path class="cls-2" d="M635.71,352.39c1.13,1.28,1.7,3.02,1.7,5.2v9.75h-5.84v-8.97c0-.95-.25-1.7-.74-2.25-.5-.55-1.16-.82-2-.82s-1.56.27-2.06.82c-.5.55-.75,1.3-.75,2.25v8.97h-5.84v-16.73h5.84v2.39c.52-.76,1.21-1.37,2.09-1.83.87-.47,1.88-.7,3.01-.7,1.93,0,3.46.64,4.59,1.92Z"/>
      <path class="cls-2" d="M643.72,366.79c-1.18-.51-2.12-1.2-2.8-2.09-.69-.88-1.07-1.88-1.15-3h5.67c.08.54.33.96.74,1.25.42.3.93.45,1.55.45.48,0,.85-.1,1.13-.3s.42-.46.42-.77c0-.42-.23-.73-.69-.92s-1.21-.42-2.27-.66c-1.19-.24-2.19-.51-2.98-.8s-1.49-.79-2.07-1.46c-.59-.68-.88-1.59-.88-2.74,0-.99.27-1.89.8-2.7s1.33-1.45,2.37-1.92c1.04-.48,2.3-.71,3.77-.71,2.19,0,3.91.54,5.16,1.61,1.25,1.07,1.98,2.48,2.18,4.23h-5.28c-.1-.54-.33-.95-.7-1.24-.37-.29-.86-.43-1.48-.43-.48,0-.84.09-1.09.27-.25.18-.37.43-.37.75,0,.4.23.7.69.91.46.21,1.19.42,2.21.64,1.21.26,2.22.55,3.03.86.8.32,1.51.83,2.12,1.54.61.71.91,1.66.91,2.88,0,.97-.28,1.85-.85,2.62-.57.78-1.37,1.39-2.41,1.83-1.04.45-2.27.67-3.68.67-1.51,0-2.86-.25-4.04-.76Z"/>
      <path class="cls-2" d="M657.55,354.43c.63-1.29,1.48-2.29,2.56-2.98,1.08-.7,2.29-1.04,3.62-1.04,1.15,0,2.15.23,2.98.69s1.48,1.07,1.94,1.85v-2.33h5.84v16.73h-5.84v-2.33c-.46.77-1.11,1.39-1.95,1.85s-1.83.69-2.97.69c-1.33,0-2.54-.35-3.62-1.04-1.08-.7-1.94-1.7-2.56-3-.63-1.3-.94-2.82-.94-4.55s.31-3.24.94-4.53ZM669.82,346.56l-7.45,2.92v-3.96l7.45-3.37v4.41ZM667.78,356.43c-.59-.62-1.31-.92-2.16-.92s-1.6.3-2.18.91c-.58.61-.86,1.46-.86,2.55s.29,1.92.86,2.55c.58.63,1.3.94,2.18.94s1.57-.31,2.16-.92c.59-.62.88-1.47.88-2.56s-.29-1.92-.88-2.53Z"/>
      <path class="cls-2" d="M685.86,361.83l3.13-11.21h6.23l-5.75,16.73h-7.28l-5.75-16.73h6.23l3.19,11.21Z"/>
      <path class="cls-2" d="M713.08,360.16h-11.06c.06.91.31,1.59.76,2.04.45.45,1.02.67,1.71.67.97,0,1.67-.44,2.09-1.31h6.23c-.26,1.15-.76,2.18-1.51,3.09-.75.9-1.68,1.62-2.82,2.13-1.13.52-2.39.78-3.76.78-1.65,0-3.11-.35-4.4-1.04-1.28-.7-2.29-1.69-3.01-2.98s-1.09-2.81-1.09-4.56.36-3.27,1.07-4.55c.72-1.28,1.71-2.27,3-2.97,1.28-.7,2.76-1.04,4.43-1.04s3.11.34,4.38,1.01,2.27,1.64,2.98,2.91c.72,1.26,1.07,2.75,1.07,4.46,0,.46-.03.91-.09,1.37ZM707.21,357.33c0-.71-.24-1.28-.72-1.68s-1.07-.61-1.79-.61-1.3.19-1.76.58c-.46.39-.76.96-.89,1.71h5.16Z"/>
      <path class="cls-2" d="M721.4,345.28v22.06h-5.84v-22.06h5.84Z"/>
    </g>
    <rect class="cls-1" width="841.89" height="498.75"/>
  </g>
</svg>